<svg width="20" height="20" viewBox="0 0 20 20" fill="none" xmlns="http://www.w3.org/2000/svg">
<path d="M18.0413 17.1876C17.9864 17.2826 17.9075 17.3615 17.8124 17.4164C17.7174 17.4712 17.6096 17.5001 17.4998 17.5001H2.49985C2.39019 17.4999 2.28249 17.471 2.18757 17.4161C2.09265 17.3612 2.01384 17.2823 1.95906 17.1873C1.90428 17.0923 1.87546 16.9845 1.87549 16.8749C1.87552 16.7652 1.90439 16.6575 1.95922 16.5626C3.14907 14.5055 4.98266 13.0305 7.1225 12.3313C6.06404 11.7012 5.24168 10.741 4.78171 9.59833C4.32174 8.45561 4.2496 7.19349 4.57636 6.0058C4.90313 4.81811 5.61072 3.77051 6.59049 3.0239C7.57026 2.27728 8.76803 1.87292 9.99985 1.87292C11.2317 1.87292 12.4294 2.27728 13.4092 3.0239C14.389 3.77051 15.0966 4.81811 15.4233 6.0058C15.7501 7.19349 15.678 8.45561 15.218 9.59833C14.758 10.741 13.9357 11.7012 12.8772 12.3313C15.017 13.0305 16.8506 14.5055 18.0405 16.5626C18.0954 16.6575 18.1245 16.7652 18.1246 16.8749C18.1247 16.9847 18.096 17.0925 18.0413 17.1876Z" fill="white"/>
</svg>
